{"title":"Salt 2010 R5 LiNE H264","uid":5771802,"size":1173197941,"categoryP":"video","categoryS":"movies","magnet":"?xt=urn:btih:186a484c4e62ecf2694661decc7ad63706b39f8b&amp;dn=Salt+2010+R5+LiNE+H264&amp;tr=udp%3A%2F%2Ftracker.openbittorrent.com%3A80&amp;tr=udp%3A%2F%2Fopen.demonii.com%3A1337&amp;tr=udp%3A%2F%2Ftracker.coppersurfer.tk%3A6969&amp;tr=udp%3A%2F%2Fexodus.desync.com%3A6969","seeders":0,"leechers":0,"uploader":"hiest","files":-1,"time":1282093001,"description":"File Name\n\nSalt 2010 R5 LiNE H264.mp4\n\nFile Size\nFormat : MPEG-4\nFormat profile : Base Media\nCodec ID : isom\nFile size : 1.09 GiB\nDuration : 1h 35mn\nOverall bit rate : 1 631 Kbps\n\nVideo\nID : 1\nFormat : AVC\nFormat/Info : Advanced Video Codec\nFormat profile : &lt;a class=&quot;__cf_email__&quot; href=&quot;/cdn-cgi/l/email-protection&quot; data-cfemail=&quot;9ed6f7f9f6ded2aab0af&quot;&gt;[email&amp;#160;protected]&lt;/a&gt;&lt;script data-cfhash='f9e31' type=&quot;text/javascript&quot;&gt;\n/* &lt;![CDATA[ */!function(){try{var t=&quot;currentScript&quot;in document?document.currentScript:function(){for(var t=document.getElementsByTagName(&quot;script&quot;),e=t.length;e--;)if(t[e].getAttribute(&quot;data-cfhash&quot;))return t[e]}();if(t&amp;&amp;t.previousSibling){var e,r,n,i,c=t.previousSibling,a=c.getAttribute(&quot;data-cfemail&quot;);if(a){for(e=&quot;&quot;,r=parseInt(a.substr(0,2),16),n=2;a.length-n;n+=2)i=parseInt(a.substr(n,2),16)^r,e+=String.fromCharCode(i);e=document.createTextNode(e),c.parentNode.replaceChild(e,c)}t.parentNode.removeChild(t);}}catch(u){}}()/* ]]&gt; */&lt;/script&gt;\nFormat settings, CABAC : Yes\nFormat settings, ReFrames : 3 frames\nCodec ID : avc1\nCodec ID/Info : Advanced Video Coding\nDuration : 1h 35mn\nBit rate mode : Variable\nBit rate : 1 500 Kbps\nMaximum bit rate : 6 585 Kbps\nWidth : 720 pixels\nHeight : 304 pixels\nDisplay aspect ratio : 2.35:1\nOriginal display aspect ratio : 2.35:1\nFrame rate mode : Constant\nFrame rate : 25.000 fps\nResolution : 24 bits\nColorimetry : 4:2:0\nScan type : Progressive\nBits/(Pixel*Frame) : 0.274\nStream size : 1.00 GiB (92%)\n\nAudio \nID : 2\nFormat : AAC\nFormat/Info : Advanced Audio Codec\nFormat version : Version 4\nFormat profile : LC\nFormat settings, SBR : No\nCodec ID : 40\nDuration : 1h 35mn\nBit rate mode : Variable\nBit rate : 128 Kbps\nMaximum bit rate : 135 Kbps\nChannel(s) : 2 channels\nChannel positions : L R\nSampling rate : 48.0 KHz\nResolution : 16 bits\nStream size : 87.8 MiB (8%)\n\nEnglish SRT : Hard coded english subs when needed\n\nLanguage : English\n\n\n &lt;a href=&quot;\nhttp://www.imdb.com/title/tt0944835/&quot; rel=&quot;nofollow&quot; target=&quot;_NEW&quot;&gt;\nhttp://www.imdb.com/title/tt0944835/&lt;/a&gt;\n\nRelease Date: 23 July 2010 (USA) \n\nGenre: Action | Mystery | Thriller \n\nPlot: A CIA agent goes on the run after a defector accuses her of being a Russian spy.\n\nCast: \nAngelina Jolie ... Evelyn Salt\nLiev Schreiber ... Ted Winter\nChiwetel Ejiofor ... Peabody\nDaniel Olbrychski ... Vassily Orlov\nAugust Diehl ... Mike Krause\nDaniel Pearce ... Young Orlov\nHunt Block ... U.S. President Lewis\nAndre Braugher ... Secretary of Defense\nOlek Krupa ... Russian President Matveyev\nCassidy Hinkle ... 12-Year-Old Chenkov\nCorey Stoll ... Shnaider\nVladislav Koulikov ... Chenkov's Father\nOlya Zueva ... Chenkov's Mother\nKevin O'Donnell ... Young CIA Officer\nGaius Charles ... CIA Officer\n\n\n\nScreenshots:\n &lt;a href=&quot;\nhttp://postimg.com/image/20000/19943.jpg&quot; rel=&quot;nofollow&quot; target=&quot;_NEW&quot;&gt;\nhttp://postimg.com/image/20000/19943.jpg&lt;/a&gt;\n &lt;a href=&quot;\nhttp://postimg.com/image/20000/19944.jpg&quot; rel=&quot;nofollow&quot; target=&quot;_NEW&quot;&gt;\nhttp://postimg.com/image/20000/19944.jpg&lt;/a&gt;","torrent":{"xt":"urn:btih:186a484c4e62ecf2694661decc7ad63706b39f8b","amp;dn":"Salt+2010+R5+LiNE+H264","amp;tr":["udp%3A%2F%2Ftracker.openbittorrent.com%3A80","udp%3A%2F%2Fopen.demonii.com%3A1337","udp%3A%2F%2Ftracker.coppersurfer.tk%3A6969","udp%3A%2F%2Fexodus.desync.com%3A6969"],"infoHash":"186a484c4e62ecf2694661decc7ad63706b39f8b","infoHashBuffer":{"type":"Buffer","data":[24,106,72,76,78,98,236,242,105,70,97,222,204,122,214,55,6,179,159,139]},"announce":[],"urlList":[]}}